<?xml version="1.0" encoding="UTF-8"?>
<svg width="118px" height="38px" viewBox="0 0 118 38" version="1.1" xmlns="http://www.w3.org/2000/svg" xmlns:xlink="http://www.w3.org/1999/xlink">
    <!-- Generator: Sketch 61 (89581) - https://sketch.com -->
    <title>Logo/Logo Dark</title>
    <desc>Created with Sketch.</desc>
    <defs>
        <path d="M0.498342857,9.2267619 C1.57899048,3.18331429 7.41904762,-0.780990476 13.4349905,0.445866667 C19.3387429,1.64992381 23.0555048,7.55584762 21.9231048,13.4737143 L21.9231048,13.4737143 L21.5007619,15.6806095 C21.0585143,17.9899238 22.5727238,20.2203429 24.8816762,20.6622286 C29.6009143,21.565181 32.8938857,26.0701714 32.0126476,30.7930286 C31.1299619,35.5205905 26.5630857,38.6203048 21.8438476,37.6952762 C17.1293143,36.7709714 14.1580762,32.0473905 15.0610286,27.3281524 C15.5025524,25.0188381 13.9890667,22.788781 11.6797524,22.3468952 L11.6797524,22.3468952 L9.47249524,21.9245524 C3.55462857,20.7921524 -0.562038095,15.158019 0.498342857,9.2267619 Z" id="path-1"></path>
        <path d="M2.11062857,1.80554286 C-0.25912381,4.17493333 -0.25912381,8.01691429 2.11062857,10.3863048 C4.47965714,12.7556952 8.3216381,12.7556952 10.6913905,10.3863048 C13.060419,8.01691429 13.060419,4.17493333 10.6913905,1.80554286 C8.3216381,-0.563847619 4.47965714,-0.563847619 2.11062857,1.80554286" id="path-3"></path>
    </defs>
    <g id="Symbols" stroke="none" stroke-width="1" fill="none" fill-rule="evenodd">
        <g id="Logo/Dark">
            <g id="Logo/Logo-Dark">
                <g id="Logo">
                    <g id="Group">
                        <g id="Group-12" transform="translate(2.171429, 0.000000)">
                            <mask id="mask-2" fill="white">
                                <use xlink:href="#path-1"></use>
                            </mask>
                            <g id="Clip-11"></g>
                            <polygon id="Fill-10" fill="#335EEA" mask="url(#mask-2)" points="-174.8 269.980952 39.9144762 269.980952 39.9144762 0.222933333 -174.8 0.222933333"></polygon>
                        </g>
                        <g id="Group-15" transform="translate(0.000000, 25.695238)">
                            <mask id="mask-4" fill="white">
                                <use xlink:href="#path-3"></use>
                            </mask>
                            <g id="Clip-14"></g>
                            <path d="M2.11062857,1.80554286 C-0.25912381,4.17493333 -0.25912381,8.01691429 2.11062857,10.3863048 C4.47965714,12.7556952 8.3216381,12.7556952 10.6913905,10.3863048 C13.060419,8.01691429 13.060419,4.17493333 10.6913905,1.80554286 C8.3216381,-0.563847619 4.47965714,-0.563847619 2.11062857,1.80554286" id="Fill-13" fill="#335EEA" mask="url(#mask-4)"></path>
                        </g>
                    </g>
                    <path d="M53.848,25.952 C54.6266667,25.952 55.32,25.7706667 55.928,25.408 C56.536,25.0453333 57.0133333,24.5253333 57.36,23.848 C57.7066667,23.1706667 57.88,22.3733333 57.88,21.456 C57.88,20.5386667 57.7066667,19.7386667 57.36,19.056 C57.0133333,18.3733333 56.536,17.8506667 55.928,17.488 C55.32,17.1253333 54.6266667,16.944 53.848,16.944 C52.9946667,16.944 52.272,17.16 51.68,17.592 C51.088,18.024 50.68,18.592 50.456,19.296 L50.456,19.296 L50.456,14 L49,14 L49,25.84 L50.456,25.84 L50.456,23.6 C50.68,24.304 51.088,24.872 51.68,25.304 C52.272,25.736 52.9946667,25.952 53.848,25.952 Z M53.432,24.672 C52.8666667,24.672 52.3546667,24.5386667 51.896,24.272 C51.4373333,24.0053333 51.08,23.6293333 50.824,23.144 C50.568,22.6586667 50.44,22.096 50.44,21.456 C50.44,20.816 50.568,20.2506667 50.824,19.76 C51.08,19.2693333 51.4373333,18.8933333 51.896,18.632 C52.3546667,18.3706667 52.8666667,18.24 53.432,18.24 C54.3386667,18.24 55.0613333,18.5253333 55.6,19.096 C56.1386667,19.6666667 56.408,20.4533333 56.408,21.456 C56.408,22.4586667 56.1386667,23.2453333 55.6,23.816 C55.0613333,24.3866667 54.3386667,24.672 53.432,24.672 Z M64.968,25.952 C65.8106667,25.952 66.5653333,25.7706667 67.232,25.408 C67.8986667,25.0453333 68.4213333,24.5253333 68.8,23.848 C69.1786667,23.1706667 69.368,22.3733333 69.368,21.456 C69.368,20.5386667 69.1786667,19.7386667 68.8,19.056 C68.4213333,18.3733333 67.8986667,17.8506667 67.232,17.488 C66.5653333,17.1253333 65.8106667,16.944 64.968,16.944 C64.1253333,16.944 63.3706667,17.1253333 62.704,17.488 C62.0373333,17.8506667 61.512,18.3733333 61.128,19.056 C60.744,19.7386667 60.552,20.5386667 60.552,21.456 C60.552,22.3733333 60.744,23.1706667 61.128,23.848 C61.512,24.5253333 62.0373333,25.0453333 62.704,25.408 C63.3706667,25.7706667 64.1253333,25.952 64.968,25.952 Z M64.968,24.672 C64.4453333,24.672 63.9626667,24.5546667 63.52,24.32 C63.0773333,24.0853333 62.72,23.7253333 62.448,23.24 C62.176,22.7546667 62.04,22.16 62.04,21.456 C62.04,20.7413333 62.176,20.1413333 62.448,19.656 C62.72,19.1706667 63.0773333,18.8106667 63.52,18.576 C63.9626667,18.3413333 64.4453333,18.224 64.968,18.224 C65.4906667,18.224 65.9733333,18.3413333 66.416,18.576 C66.8586667,18.8106667 67.216,19.1706667 67.488,19.656 C67.76,20.1413333 67.896,20.7413333 67.896,21.456 C67.896,22.16 67.76,22.7546667 67.488,23.24 C67.216,23.7253333 66.8586667,24.0853333 66.416,24.32 C65.9733333,24.5546667 65.4906667,24.672 64.968,24.672 Z M76.072,25.952 C76.9253333,25.952 77.648,25.7386667 78.24,25.312 C78.832,24.8853333 79.2453333,24.3146667 79.48,23.6 L79.48,23.6 L79.48,25.84 L80.936,25.84 L80.936,14 L79.48,14 L79.48,19.296 C79.2453333,18.5813333 78.832,18.0106667 78.24,17.584 C77.648,17.1573333 76.9253333,16.944 76.072,16.944 C75.2933333,16.944 74.6,17.1253333 73.992,17.488 C73.384,17.8506667 72.9066667,18.3733333 72.56,19.056 C72.2133333,19.7386667 72.04,20.5386667 72.04,21.456 C72.04,22.3733333 72.2133333,23.1706667 72.56,23.848 C72.9066667,24.5253333 73.384,25.0453333 73.992,25.408 C74.6,25.7706667 75.2933333,25.952 76.072,25.952 Z M76.488,24.672 C75.592,24.672 74.8746667,24.3866667 74.336,23.816 C73.7973333,23.2453333 73.528,22.4586667 73.528,21.456 C73.528,20.4533333 73.7973333,19.6666667 74.336,19.096 C74.8746667,18.5253333 75.592,18.24 76.488,18.24 C77.064,18.24 77.5786667,18.3706667 78.032,18.632 C78.4853333,18.8933333 78.84,19.2693333 79.096,19.76 C79.352,20.2506667 79.48,20.816 79.48,21.456 C79.48,22.096 79.352,22.6586667 79.096,23.144 C78.84,23.6293333 78.4853333,24.0053333 78.032,24.272 C77.5786667,24.5386667 77.064,24.672 76.488,24.672 Z M85.912,25.84 L85.912,21.216 C85.912,20.2453333 86.1733333,19.5493333 86.696,19.128 C87.2186667,18.7066667 87.8906667,18.496 88.712,18.496 L88.712,18.496 L89.16,18.496 L89.16,16.912 C88.392,16.912 87.7306667,17.08 87.176,17.416 C86.6213333,17.752 86.2,18.224 85.912,18.832 L85.912,18.832 L85.912,17.056 L84.456,17.056 L84.456,25.84 L85.912,25.84 Z M94.968,25.984 C95.7253333,25.984 96.3893333,25.7946667 96.96,25.416 C97.5306667,25.0373333 97.928,24.4906667 98.152,23.776 L98.152,23.776 L98.152,25.84 L99.608,25.84 L99.608,17.056 L98.152,17.056 L98.152,21.728 C98.152,22.72 97.912,23.4746667 97.432,23.992 C96.952,24.5093333 96.312,24.768 95.512,24.768 C94.744,24.768 94.136,24.5306667 93.688,24.056 C93.24,23.5813333 93.016,22.9066667 93.016,22.032 L93.016,22.032 L93.016,17.056 L91.56,17.056 L91.56,22.176 C91.56,23.4026667 91.8746667,24.344 92.504,25 C93.1333333,25.656 93.9546667,25.984 94.968,25.984 Z M104.6,25.84 L104.6,21.184 C104.6,20.2026667 104.832,19.4586667 105.296,18.952 C105.76,18.4453333 106.381333,18.192 107.16,18.192 C107.885333,18.192 108.461333,18.4213333 108.888,18.88 C109.314667,19.3386667 109.528,20 109.528,20.864 L109.528,20.864 L109.528,25.84 L110.984,25.84 L110.984,21.184 C110.984,20.2026667 111.216,19.4586667 111.68,18.952 C112.144,18.4453333 112.76,18.192 113.528,18.192 C114.264,18.192 114.842667,18.4213333 115.264,18.88 C115.685333,19.3386667 115.896,20 115.896,20.864 L115.896,20.864 L115.896,25.84 L117.352,25.84 L117.352,20.736 C117.352,19.4986667 117.04,18.552 116.416,17.896 C115.792,17.24 114.968,16.912 113.944,16.912 C113.218667,16.912 112.568,17.1066667 111.992,17.496 C111.416,17.8853333 111.005333,18.4373333 110.76,19.152 C110.525333,18.416 110.133333,17.8586667 109.584,17.48 C109.034667,17.1013333 108.386667,16.912 107.64,16.912 C106.925333,16.912 106.293333,17.096 105.744,17.464 C105.194667,17.832 104.813333,18.3626667 104.6,19.056 L104.6,19.056 L104.6,17.056 L103.144,17.056 L103.144,25.84 L104.6,25.84 Z" id="bodrum" fill="#171C2D" fill-rule="nonzero"></path>
                </g>
            </g>
        </g>
    </g>
</svg>