<?xml version="1.0" encoding="UTF-8"?>
<svg width="348px" height="133px" viewBox="0 0 348 133" version="1.1" xmlns="http://www.w3.org/2000/svg" xmlns:xlink="http://www.w3.org/1999/xlink">
    <!-- Generator: Sketch 61 (89581) - https://sketch.com -->
    <title>Group 3</title>
    <desc>Created with Sketch.</desc>
    <g id="Pages" stroke="none" stroke-width="1" fill="none" fill-rule="evenodd" opacity="0.1">
        <g id="17---Careers" transform="translate(0.000000, -80.000000)" fill="#335EEA" fill-rule="nonzero">
            <g id="Group-3" transform="translate(0.000000, 80.000000)">
                <rect id="Rectangle" x="0" y="84" width="55" height="17" rx="7.43"></rect>
                <rect id="Rectangle" x="57" y="99" width="55" height="17" rx="7.43"></rect>
                <rect id="Rectangle" x="114" y="116" width="55" height="17" rx="7.43"></rect>
                <rect id="Rectangle" x="0" y="58" width="55" height="17" rx="7.43"></rect>
                <rect id="Rectangle" x="57" y="75" width="55" height="17" rx="7.43"></rect>
                <rect id="Rectangle" x="114" y="91" width="55" height="17" rx="7.43"></rect>
                <rect id="Rectangle" x="178" y="84" width="55" height="17" rx="7.43"></rect>
                <rect id="Rectangle" x="235" y="99" width="55" height="17" rx="7.43"></rect>
                <rect id="Rectangle" x="293" y="116" width="55" height="17" rx="7.43"></rect>
                <rect id="Rectangle" x="178" y="58" width="55" height="17" rx="7.43"></rect>
                <rect id="Rectangle" x="235" y="75" width="55" height="17" rx="7.43"></rect>
                <rect id="Rectangle" x="293" y="91" width="55" height="17" rx="7.43"></rect>
                <rect id="Rectangle" x="0" y="25" width="55" height="17" rx="7.43"></rect>
                <rect id="Rectangle" x="57" y="42" width="55" height="17" rx="7.43"></rect>
                <rect id="Rectangle" x="114" y="58" width="55" height="17" rx="7.43"></rect>
                <rect id="Rectangle" x="0" y="0" width="55" height="17" rx="7.43"></rect>
                <rect id="Rectangle" x="57" y="17" width="55" height="17" rx="7.43"></rect>
                <rect id="Rectangle" x="114" y="33" width="55" height="17" rx="7.43"></rect>
                <rect id="Rectangle" x="178" y="25" width="55" height="17" rx="7.43"></rect>
                <rect id="Rectangle" x="235" y="42" width="55" height="17" rx="7.43"></rect>
                <rect id="Rectangle" x="293" y="58" width="55" height="17" rx="7.43"></rect>
                <rect id="Rectangle" x="178" y="0" width="55" height="17" rx="7.43"></rect>
                <rect id="Rectangle" x="235" y="17" width="55" height="17" rx="7.43"></rect>
                <rect id="Rectangle" x="293" y="33" width="55" height="17" rx="7.43"></rect>
            </g>
        </g>
    </g>
</svg>