<?xml version="1.0" encoding="UTF-8"?>
<svg width="650px" height="650px" viewBox="0 0 650 650" version="1.1" xmlns="http://www.w3.org/2000/svg" xmlns:xlink="http://www.w3.org/1999/xlink">
    <!-- Generator: Sketch 61 (89581) - https://sketch.com -->
    <title>roads</title>
    <desc>Created with Sketch.</desc>
    <g id="Home" stroke="none" stroke-width="1" fill="none" fill-rule="evenodd">
        <g id="roads">
            <path d="M650,366 L0,366 M83,0 L83,650 M178,366 L178,650 M178,0 L178,165.5 M439,0 L439,201.5 C439,203.7 437.2,205.5 435,205.5 L83,205.5 M439,467.5 L439,650 M82.5,484.2 L370.5,584.3 M370.5,623 L561,623" id="road" stroke="#7F9EFD" stroke-width="2"></path>
            <path d="M122.5,0 L122.5,160 C122.5,163.3 125.2,166 128.5,166 L275.5,166 C278.8,166 281.5,168.7 281.5,172 L281.5,461 C281.5,464.3 284.2,467 287.5,467 L650,467" id="road_1_" stroke="#324EA4" stroke-width="3"></path>
            <path d="M53.5,0 L53.5,295.5 C53.5,298.8 56.2,301.5 59.5,301.5 L555.5,301.5 C558.8,301.5 561.5,304.2 561.5,307.5 L561.5,650" id="road_2_" stroke="#3B56A8" stroke-width="3"></path>
            <path d="M561.5,0 L561.5,222 C561.5,225.3 559.2,229.4 556.3,231 L375.7,335.5 C372.8,337.1 370.5,341.2 370.5,344.5 L370.5,650 M370.5,0 L370.5,85.5 C370.5,88.8 367.8,91.5 364.5,91.5 L0,91.5 M562,91.5 L650,91.5 M53.5,650 L53.5,440 C53.5,436.7 55.4,432.1 57.8,429.8 L122.2,366.3 M122.5,301.5 L122.5,650 M53,467 L0,467" id="road_3_" stroke="#3B56A8" stroke-width="3"></path>
        </g>
    </g>
</svg>